<?xml version="1.0" encoding="UTF-8"?>
<svg id="Laag_1" data-name="Laag 1" xmlns="http://www.w3.org/2000/svg" viewBox="0 0 1750 718.59">
  <defs>
    <style>
      .cls-1 {
        fill: #e51935;
      }

      .cls-2 {
        fill: #3b3c43;
      }
    </style>
  </defs>
  <path class="cls-2" d="M0,438.88c0-7.49,3.75-11.24,6.87-13.28,3.13-2.05,39.08-23.17,44.32-26.17,5.24-3,9.99-7.74,9.99-13.48v-53.51c0-5.74-3.04-9.96-6.59-12.27-3.55-2.31-38.6-22.54-44.6-26.04-5.99-3.5-9.99-9.24-9.99-13.24v-66.25s110.62,66.42,115.87,69.67c5.24,3.25,7.49,8.99,7.49,12.74v122.86c0,7.74-5.49,11.99-10.24,14.73C108.38,437.38.25,502.81.25,502.81c0,0-.25-56.44-.25-63.93ZM93.98,600.72c6.42,3.87,11.56,2.59,14.93.97,3.37-1.62,38.07-23.46,43.34-26.4,5.27-2.95,11.2-3.85,16.11-.89,4.92,2.96,47.07,28.37,51.99,31.34,4.92,2.96,7.57,7.77,7.71,12,.15,4.24-.24,45.27-.34,52.21-.1,6.94,2.76,13.32,6.18,15.39s55.37,33.25,55.37,33.25c0,0,.2-129.04.13-135.2-.07-6.17-3.83-11.06-7.04-12.99-3.21-1.93-105.36-63.81-111.99-67.81-6.63-4-12.84-1.91-17.65.74-4.8,2.65-110.15,66.31-110.15,66.31,0,0,44.99,27.21,51.4,31.08ZM43.07,148.95s105.35,63.67,110.15,66.31c4.8,2.65,11.02,4.73,17.65.74,6.63-4,108.78-65.87,111.99-67.81,3.21-1.93,6.97-6.82,7.04-12.99.07-6.17-.13-135.2-.13-135.2,0,0-51.95,31.19-55.37,33.25-3.42,2.06-6.28,8.45-6.18,15.39.1,6.94.49,47.97.34,52.21-.15,4.24-2.8,9.04-7.71,12-4.92,2.96-47.07,28.37-51.99,31.34-4.92,2.96-10.84,2.06-16.11-.89-5.27-2.95-39.97-24.78-43.34-26.4-3.37-1.62-8.51-2.9-14.93.97-6.42,3.87-51.4,31.08-51.4,31.08Z"/>
  <path class="cls-1" d="M344.13,321.51c-21.28,12.07-41.95,24.72-64.18,38.21,21.48,12.99,44.59,27.24,64.18,38.21,5.39,3.02,8.14,8.92,8.14,15.9,0,47.88.12,90.47,0,138.36,0,1.36,0,5.33,0,7.61-13.17-7.87-41.73-25.19-58.39-35.17-2.52-1.51-3.85-5.3-3.96-8.89-.61-19.66-.23-69.61-.48-89.58-.06-4.42-1-7.74-8.61-12.37-10.51-6.39-38-22.92-52.57-31.58-.36,19.28.23,60.71.23,84.43,0,12.3-3.49,16.04-10.85,11.93-5.13-2.76-45.59-26.95-45.8-27.03-5.48-2.5-6.78-5.29-6.69-10.07.77-39.94-.23-122.57,0-162.52.03-5.94,1.88-8.93,8.05-12.52-.04.06,55.18-33.85,55.31-33.87,0,.37-.02,31.3-.03,57.6.42.09.6.18.41.29-.14.08-.27.16-.41.24,0,8.3,0,40.6,0,47.35,16.5-9.77,36.73-22.26,53.53-32.11,6.09-3.57,7.96-7.26,7.79-13.89-.49-19.3.7-66.91,0-86.2-.27-7.39,1.68-10.74,7.84-14.29,19.21-11.04,33.54-19.7,54.28-32.13.12.12-.06,7.05-.07,13.12-.1,40.74.04,91.08,0,133.71,0,7.06-1.19,11.55-7.74,15.27ZM426.26,293.17c-21.28,14.48-31.92,37.32-31.92,68.54s10.6,54.33,31.79,68.8c21.19,14.48,53.24,21.71,96.14,21.71s74.73-7.24,96.01-21.71c21.27-14.47,31.92-37.41,31.92-68.8s-10.69-54.06-32.05-68.54c-21.37-14.47-53.33-21.71-95.88-21.71s-74.73,7.24-96.01,21.71ZM487.73,405.01c-9.42-1.13-17.05-3.36-22.89-6.67-5.84-3.31-10.07-7.89-12.69-13.73-2.62-5.84-3.92-13.47-3.92-22.89s1.31-17.05,3.92-22.89c2.62-5.84,6.84-10.37,12.69-13.6,5.84-3.22,13.47-5.4,22.89-6.54,9.42-1.13,20.93-1.7,34.53-1.7s25.11.57,34.53,1.7c9.42,1.14,17.05,3.31,22.89,6.54,5.84,3.23,10.07,7.76,12.69,13.6,2.62,5.84,3.93,13.47,3.93,22.89s-1.31,17.05-3.93,22.89c-2.62,5.84-6.85,10.42-12.69,13.73-5.84,3.31-13.47,5.54-22.89,6.67-9.42,1.14-20.93,1.7-34.53,1.7s-25.11-.56-34.53-1.7ZM906.31,415.34c-6.11-6.1-10.99-10.9-14.65-14.39-3.66-3.49-6.98-6.36-9.94-8.63,7.15-1.39,13.56-3.79,19.23-7.19,5.67-3.4,10.46-7.54,14.39-12.43,3.93-4.88,6.93-10.37,9.02-16.48,2.09-6.1,3.14-12.56,3.14-19.36,0-12.56-2.84-22.85-8.5-30.87-5.67-8.02-12.86-14.39-21.58-19.1-8.72-4.71-18.4-7.98-29.04-9.81-10.64-1.83-20.93-2.75-30.87-2.75h-112.49l-35.32,45.52h152.26c9.42,0,16.74,1.7,21.98,5.1,5.23,3.4,7.85,8.5,7.85,15.3,0,6.11-2.88,10.9-8.63,14.39-5.76,3.49-12.82,5.23-21.19,5.23h-152.26v89.47h54.15v-46.31h83.19l38.98,46.31h72.47l-32.18-34.01ZM1063.27,290.03c-3.14-5.76-7.11-10.29-11.9-13.6-4.8-3.31-10.69-4.97-17.66-4.97s-12.99,1.96-18.57,5.89c-5.59,3.92-9.59,9.98-12.04,18.18l-45.26,153.83h53.11l16.48-60.95c2.62-9.94,4.88-18.71,6.8-26.29,1.92-7.59,3.57-14.87,4.97-21.84,1.39,2.97,2.83,6.02,4.32,9.16,1.48,3.14,3.22,6.59,5.23,10.33,2,3.75,4.23,7.98,6.67,12.69,2.44,4.71,5.23,10.03,8.37,15.96l23.54,44.21c2.27,4.36,4.58,7.81,6.93,10.33,2.35,2.53,4.75,4.49,7.19,5.89,2.44,1.39,5.06,2.31,7.85,2.75,2.79.43,5.84.65,9.16.65s6.36-.22,9.16-.65c2.79-.44,5.4-1.35,7.85-2.75,2.44-1.39,4.84-3.36,7.19-5.89,2.35-2.53,4.66-5.97,6.93-10.33l23.55-43.95c5.93-11.34,10.73-20.71,14.39-28.12,3.66-7.41,6.97-14.17,9.94-20.27,1.39,7.15,3.05,14.48,4.97,21.98,1.92,7.5,4.27,16.22,7.06,26.16l16.48,60.95h53.89l-44.21-153.83c-2.44-8.2-6.41-14.26-11.9-18.18-5.49-3.93-11.64-5.89-18.44-5.89-7.15,0-13.13,1.7-17.92,5.1-4.8,3.4-8.76,7.89-11.9,13.47l-27.99,49.71c-3.84,6.8-7.19,12.73-10.07,17.79-2.88,5.06-5.41,9.64-7.59,13.73-2.18,4.1-4.1,7.76-5.76,10.99-1.66,3.23-3.18,6.41-4.58,9.55-1.57-3.14-3.18-6.37-4.84-9.68-1.66-3.31-3.58-6.97-5.76-10.99-2.18-4.01-4.71-8.59-7.59-13.73-2.88-5.14-6.24-11.12-10.07-17.92l-27.99-49.44ZM1366.74,404.35v-23.81h107.52l31.13-39.77h-138.65v-20.93h113.28l35.06-45.52h-202.75v175.02h168.48l34.79-45h-148.86ZM1601.14,404.35v-23.81h107.52l31.13-39.77h-138.65v-20.93h113.28l35.06-45.52h-202.75v175.02h168.48l34.79-45h-148.86Z"/>
  <path class="cls-2" d="M1224.53,559.75l-4.84-17.65c-.89-3.21-1.55-5.63-2.06-7.63-.54-2.11-1.03-4.24-1.43-6.34l-.89-4.55-2.02,4.17c-.84,1.71-1.76,3.6-2.78,5.67l-.13.26c-1.12,2.25-2.53,5-4.19,8.19l-6.91,12.89c-.58,1.14-1.18,2.04-1.79,2.69-.57.62-1.15,1.1-1.74,1.43-.54.31-1.14.52-1.76.62-1.5.23-3.42.22-4.89,0-.63-.1-1.22-.31-1.77-.62-.57-.32-1.16-.8-1.74-1.43-.59-.65-1.2-1.55-1.8-2.7l-6.89-12.94c-.91-1.73-1.73-3.28-2.44-4.66-.72-1.38-1.38-2.63-1.97-3.73-.61-1.16-1.1-2.13-1.5-2.96l-3.26-6.94-.93,4.61c-.41,2.06-.89,4.19-1.43,6.32-.56,2.21-1.23,4.78-1.99,7.67l-4.76,17.64h-12.33l12.96-43.98c.61-2.05,1.59-3.56,2.92-4.5,1.38-.97,2.86-1.44,4.55-1.44s3.15.4,4.28,1.18c1.2.83,2.22,2,3.02,3.47l11.14,19.72c.84,1.5,1.58,2.83,2.22,4,.62,1.17,1.17,2.22,1.66,3.18l2.88,5.77,1.34-3c.4-.9.83-1.81,1.3-2.72.48-.94,1.04-2,1.68-3.19.55-1.05,1.23-2.28,2.19-3.99.7-1.22,1.48-2.61,2.37-4.18l8.78-15.58c.81-1.43,1.83-2.59,3.03-3.44,1.14-.8,2.6-1.21,4.35-1.21s3.15.47,4.5,1.44c1.31.93,2.29,2.44,2.89,4.49l12.75,44h-12.58ZM1254.86,509.78v9.66h29.91c5.49,0,7.67,3.03,7.67,6.91v3.78h-23.75c-12.31,0-16.85,5.3-16.85,14.39s4.92,15.23,16.75,15.23h23.38c8.42,0,10.32-2.84,10.32-10.03v-23.47c0-9.46-4.92-16.47-17.41-16.47h-30ZM1289.69,550h-21.01c-5.02,0-7-2.37-7-6.06s1.89-5.87,7.19-5.87h23.56v9.37c0,1.8-.76,2.56-2.74,2.56ZM1342.75,509.78c-13.34,0-21.67,8.14-21.67,24.98s8.33,24.98,21.67,24.98h25.74v-9.74h-24.79c-8.71,0-12.49-4.45-12.49-15.24s3.79-15.33,12.49-15.33h24.79v-9.66h-25.74ZM1387.4,488.12v71.63h10.03v-40.31h17.6c10.41,0,15.04,4.54,15.04,12.21v28.1h10.13v-28.1c0-13.72-8.33-21.86-25.17-21.86h-17.6v-21.67h-10.03ZM1461.28,490.96v11.64h10.12v-11.64h-10.12ZM1461.28,509.78v49.96h10.03v-49.96h-10.03ZM1499.68,509.78c-5.01,0-7,1.89-7,7.76v42.2h10.04v-38.89c0-.95.37-1.42,1.23-1.42h16.36c10.51,0,15.05,4.35,15.05,12.21v28.1h10.12v-28.1c0-13.81-8.23-21.86-25.17-21.86h-20.62ZM1582.93,509.78c-12.49,0-17.41,7-17.41,16.47v17.03c0,9.47,4.92,16.47,17.41,16.47h30.56v-9.74h-30.56c-5.49,0-7.67-2.93-7.67-6.91v-3.6h23.75c12.3,0,16.94-5.2,16.94-14.38,0-9.65-5.02-15.33-16.85-15.33h-16.18ZM1575.27,526.35c0-3.88,2.18-6.91,7.67-6.91h16.08c4.92,0,7.1,2.46,7.1,6.24s-1.99,5.96-7.39,5.96h-23.46v-5.3ZM1648.67,509.78c-9.84,0-13.53,4.54-13.53,14.57v35.39h10.03v-33.88c0-4.35,1.99-6.43,6.44-6.43h17.6v-9.66h-20.53ZM1729.46,509.78l-16.94,39.27h-1.32c-1.89,0-2.36-.28-3.02-2.08l-15.05-37.19h-10.6l16.75,42.02c1.71,4.35,3.69,6.15,9.37,6.15l-9.37,21.86h10.79l30.09-70.03h-10.7Z"/>
</svg>